#!OML:ASF I:\Actors\actors\Patient Classification 2\Patient 1\Session 1\actor1.ASF
:FULLY-SPECIFIED
:DEGREES
934
root -1.20093 17.9498 6.06998 -6.27211 -0.19941 -3.78367
lowerback 4.85156 0.0649214 -0.40883
upperback -0.329432 0.111963 1.60004
thorax -3.06414 0.0752398 1.86925
lowerneck 0.338805 2.79519 10.1151
upperneck 37.1781 -2.61909 16.4793
head 12.8661 2.06164 4.53368
rclavicle 4.09993e-016 1.2921e-015
rhumerus 40.4916 -30.446 -38.1522
rradius 122.001
rwrist -68.8314
rhand 36.4012 -24.3401
rfingers 7.12502
rthumb 59.3509 -398.784
lclavicle 4.09993e-016 1.2921e-015
lhumerus 30.5926 -15.3369 40.8109
lradius 137.065
lwrist 31.0673
lhand -19.7429 -57.6821
lfingers 7.12502
lthumb 6.58799 -27.8046
rfemur 18.4227 -5.83438 18.7444
rtibia -1.48257
rfoot -16.2668 -6.66762
rtoes 5.12157
lfemur 26.4738 -6.94887 -13.7056
ltibia -20.8826
lfoot -2.02117 17.6026
ltoes -15.7834
935
root -1.20752 17.9552 6.06228 -6.1908 0.048537 -3.75697
lowerback 4.96513 0.0402696 -0.530277
upperback -0.211954 0.0706631 1.58708
thorax -3.00548 0.0554786 1.92716
lowerneck 0.300271 2.92186 9.95118
upperneck 37.5216 -2.32618 16.057
head 12.9893 2.14985 4.44354
rclavicle 6.54747e-015 -6.4605e-015
rhumerus 40.3942 -32.6486 -38.9115
rradius 125.439
rwrist -63.0475
rhand 34.4135 -21.2618
rfingers 7.12502
rthumb 57.625 -397.315
lclavicle 6.54747e-015 -6.4605e-015
lhumerus 30.476 -15.638 39.9201
lradius 136.68
lwrist 34.4582
lhand -20.2523 -54.5331
lfingers 7.12502
lthumb 6.09626 -24.6409
rfemur 17.563 -6.12057 18.7887
rtibia -2.54444e-014
rfoot -16.818 -6.20042
rtoes 5.03432
lfemur 26.2859 -7.08081 -13.7101
ltibia -20.8855
lfoot -1.90818 17.5193
ltoes -15.9726
936
root -1.21305 17.96 6.05212 -6.13692 0.23323 -3.78131
lowerback 5.1311 0.0308323 -0.582758
upperback -0.0995991 0.0533616 1.55963
thorax -2.98219 0.0466443 1.92975
lowerneck -0.231503 2.85868 8.96336
upperneck 38.4927 -2.65984 16.398
head 13.5552 1.9837 4.83463
rclavicle 1.58158e-014 8.24956e-015
rhumerus 40.1541 -34.6784 -40.2009
rradius 129.187
rwrist -56.8718
rhand 31.0506 -17.799
rfingers 7.12502
rthumb 54.6489 -396.189
lclavicle 1.58158e-014 8.24956e-015
lhumerus 30.5095 -15.5498 39.4477
lradius 135.976
lwrist 38.3687
lhand -21.4039 -50.4137
lfingers 7.12502
lthumb 4.98439 -20.4923
rfemur 17.4889 -6.3141 18.8163
rtibia -3.97569e-014
rfoot -16.8044 -6.23788
rtoes 4.71265
lfemur 26.1409 -7.26701 -13.6824
ltibia -20.8818
lfoot -1.84946 17.547
ltoes -15.9534
937
root -1.2185 17.9638 6.04202 -6.0627 0.327671 -3.84592
lowerback 5.27085 0.0273616 -0.562664
upperback -0.00916052 0.047663 1.50417
thorax -2.96705 0.0424811 1.86172
lowerneck -0.302203 2.76737 8.51973
upperneck 38.9973 -2.71475 16.0742
head 13.7865 1.89116 4.81852
rclavicle 1.14301e-014 1.86858e-014
rhumerus 39.7571 -36.4204 -41.975
rradius 133.039
rwrist -51.2212
rhand 26.5166 -14.8636
rfingers 7.12502
rthumb 50.5498 -395.793
lclavicle 1.14301e-014 1.86858e-014
lhumerus 30.7295 -15.1388 39.3504
lradius 135.095
lwrist 42.5799
lhand -22.86 -45.7865
lfingers 7.12502
lthumb 3.5783 -15.8368
rfemur 17.3816 -6.4269 18.9092
rtibia 7.95139e-015
rfoot -16.8053 -6.31477
rtoes 4.23498
lfemur 25.9905 -7.36887 -13.5917
ltibia -20.8679
lfoot -1.83772 17.5734
ltoes -15.8246
938
root -1.22562 17.9683 6.033 -5.96094 0.364084 -3.88975
lowerback 5.34528 -0.0222178 -0.612398
upperback 0.0744049 -0.022951 1.47937
thorax -2.92003 0.00704288 1.86955
lowerneck -0.177321 2.68324 8.16463
upperneck 39.314 -2.54886 15.2943
head 13.8537 1.83579 4.58422
rclavicle 1.54928e-014 -9.74045e-015
rhumerus 39.0832 -37.609 -43.9212
rradius 136.45
rwrist -46.5192
rhand 21.5461 -11.3398
rfingers 7.12502
rthumb 45.9726 -394.446
lclavicle 1.54928e-014 -9.74045e-015
lhumerus 31.012 -14.3377 39.5388
lradius 134.244
lwrist 47.2466
lhand -24.6365 -41.2817
lfingers 7.12502
lthumb 1.86263 -11.31
rfemur 17.2373 -6.48198 18.9967
rtibia -4.13472e-014
rfoot -16.8329 -6.38593
rtoes 4.13612
lfemur 25.8207 -7.39143 -13.5022
ltibia -20.8482
lfoot -1.82222 17.5738
ltoes -15.7433
939
root -1.23576 17.9733 6.02427 -5.83822 0.347838 -3.91749
lowerback 5.35738 -0.100785 -0.753052
upperback 0.168103 -0.136819 1.49357
thorax -2.82565 -0.048944 1.9718
lowerneck -0.676382 2.80282 7.05292
upperneck 39.8117 -2.20857 14.8776
head 14.1197 1.8162 4.69014
rclavicle 2.49723e-015 1.78906e-015
rhumerus 37.4276 -37.5396 -45.0916
rradius 139.116
rwrist -43.2991
rhand 13.0259 -5.04315
rfingers 7.12502
rthumb 37.9903 -390.845
lclavicle 2.49723e-015 1.78906e-015
lhumerus 31.4595 -13.2198 39.9065
lradius 133.525
lwrist 52.5923
lhand -26.2943 -37.2526
lfingers 7.12502
lthumb 0.26147 -7.27299
rfemur 17.0617 -6.48594 19.0847
rtibia 9.54166e-015
rfoot -16.8455 -6.40581
rtoes 4.36254
lfemur 25.6317 -7.3883 -13.4159
ltibia -20.8105
lfoot -1.83174 17.5997
ltoes -15.6296
940
root -1.24678 17.9773 6.01615 -5.72231 0.261731 -3.92581
lowerback 5.3129 -0.143039 -0.873373
upperback 0.233188 -0.203347 1.41164
thorax -2.73081 -0.0822185 1.95942
lowerneck -0.761886 2.7731 6.52697
upperneck 40.1009 -2.00598 14.2573
head 14.2235 1.76843 4.56118
rclavicle -1.0051e-014 1.2921e-014
rhumerus 34.8977 -36.5886 -45.7008
rradius 141.382
rwrist -43.3979
rhand 4.55612 -2.03545
rfingers 7.12502
rthumb 29.9465 -389.632
lclavicle -1.0051e-014 1.2921e-014
lhumerus 32.2523 -12.1141 40.3377
lradius 132.95
lwrist 58.0332
lhand -27.3005 -33.9603
lfingers 7.12502
lthumb -0.710281 -3.98173
rfemur 16.8832 -6.41943 19.1639
rtibia -1.43125e-014
rfoot -16.8079 -6.40512
rtoes 4.51812
lfemur 25.4607 -7.37252 -13.3544
ltibia -20.745
lfoot -1.86688 17.6791
ltoes -15.5623
941
root -1.25577 17.9807 6.00932 -5.63057 0.116329 -3.9163
lowerback 5.22679 -0.163047 -0.954443
upperback 0.235327 -0.239546 1.23806
thorax -2.67921 -0.100689 1.82812
lowerneck -0.633585 2.72827 6.21621
upperneck 40.284 -1.87504 13.8101
head 14.2494 1.72729 4.44668
rclavicle -3.64024e-015 -8.74653e-015
rhumerus 32.0922 -35.2032 -46.1385
rradius 142.938
rwrist -44.3244
rhand -2.85543 -3.68023
rfingers 7.12502
rthumb 22.8527 -392.346
lclavicle -3.64024e-015 -8.74653e-015
lhumerus 33.1856 -11.23 40.7359
lradius 132.568
lwrist 62.1588
lhand -27.3018 -31.6323
lfingers 7.12502
lthumb -0.711554 -1.65371
rfemur 16.7207 -6.29096 19.2264
rtibia 0
rfoot -16.7595 -6.45314
rtoes 4.4165
lfemur 25.331 -7.38866 -13.3407
ltibia -20.6539
lfoot -1.90835 17.8377
ltoes -15.5832
942
root -1.26345 17.9846 6.0032 -5.50824 -0.156103 -3.9515
lowerback 5.12595 -0.146899 -1.04537
upperback 0.16372 -0.225796 1.12385
thorax -2.69704 -0.0927573 1.7602
lowerneck -0.614597 2.6677 6.06477
upperneck 40.5592 -1.81211 13.3431
head 14.3586 1.68528 4.30122
rclavicle 2.086e-014 6.36111e-015
rhumerus 29.1355 -32.8307 -45.9922
rradius 143.354
rwrist -44.3955
rhand -12.1831 -1.88333
rfingers 7.12502
rthumb 13.8806 -391.4
lclavicle 2.086e-014 6.36111e-015
lhumerus 34.0685 -10.6996 41.0328
lradius 132.378
lwrist 63.8858
lhand -26.7637 -30.2389
lfingers 7.12502
lthumb -0.191875 -0.259202
rfemur 16.5097 -6.04356 19.3577
rtibia 7.95139e-015
rfoot -16.735 -6.52005
rtoes 4.43458
lfemur 25.1937 -7.3959 -13.2849
ltibia -20.539
lfoot -2.04815 18.0868
ltoes -15.3528
943
root -1.26951 17.9881 5.99743 -5.35832 -0.581778 -3.99407
lowerback 5.00209 -0.099461 -1.23392
upperback 0.207769 -0.171324 1.17883
thorax -2.58365 -0.0642818 1.91809
lowerneck -1.068 2.59347 6.00731
upperneck 40.9654 -1.86925 12.8894
head 14.6558 1.62463 4.15695
rclavicle -7.3923e-015 8.74653e-015
rhumerus 26.6834 -29.6603 -45.4537
rradius 142.487
rwrist -43.3814
rhand -19.6022 -2.54617
rfingers 7.12502
rthumb 6.72381 -392.419
lclavicle -7.3923e-015 8.74653e-015
lhumerus 35.0027 -10.327 41.1641
lradius 132.353
lwrist 63.1168
lhand -26.5092 -29.8837
lfingers 7.12502
lthumb 0.0539158 0.095995
rfemur 16.2534 -5.64636 19.5198
rtibia 1.59028e-014
rfoot -16.6827 -6.61431
rtoes 4.27179
lfemur 25.0658 -7.39438 -13.2384
ltibia -20.4096
lfoot -2.32278 18.4555
ltoes -14.888
